<?xml version="1.0" encoding="UTF-8" standalone="no"?><!DOCTYPE svg PUBLIC "-//W3C//DTD SVG 1.1//EN" "http://www.w3.org/Graphics/SVG/1.1/DTD/svg11.dtd"><svg width="100%" height="100%" viewBox="0 0 227 137" version="1.1" xmlns="http://www.w3.org/2000/svg" xmlns:xlink="http://www.w3.org/1999/xlink" xml:space="preserve" xmlns:serif="http://www.serif.com/" style="fill-rule:evenodd;clip-rule:evenodd;stroke-linejoin:round;stroke-miterlimit:2;"><rect id="Artboard1" x="0" y="0" width="226.772" height="136.063" style="fill:none;"/><clipPath id="_clip1"><rect x="0" y="0" width="226.772" height="136.063"/></clipPath><g clip-path="url(#_clip1)"><rect x="0" y="0" width="226.772" height="136.063" style="fill:#fff;"/><g><path d="M153.525,26.479l46.289,-11.711l-18.244,16.862l-3.682,-0.497l8.485,-6.821l-26.174,11.485l-2.843,-0.319l30.193,-12.973l5.458,-4.237l-10.614,2.797l-30.4,12.772l-2.949,-0.242l25.823,-10.717l-17.161,4.15l-4.181,-0.549Z" style="fill:#3da09d;"/></g><g><path d="M144.103,37.246c-0.296,-0.043 -1.655,0.158 -2.037,0.302c-17.871,6.714 -100.616,38.018 -100.616,38.018c0,0 -0.5,0.23 -1.067,0.471c-0.828,0.352 -2.644,2.022 -2.988,4.646c-0.13,0.989 1.616,2.274 1.456,3.778c-0.748,7.023 -5.901,19.062 -10.439,27.871c-1.038,2.014 -2.272,4.28 -0.722,5.394c0.943,0.678 4.254,1.957 6.088,2.801c1.29,0.594 4.319,0.84 5.735,0.75c4.051,-0.258 5.144,0.179 7.637,-1.488c2.339,-1.566 4.721,-10.311 5.687,-16.202c0.726,-4.429 3.083,-14.305 4.53,-15.985c1.217,-1.413 1.357,-1.539 2.599,-2.155c11.226,-5.567 2.895,4.715 -0.437,4.619c-2.84,-0.082 -0.117,2.369 2.796,0.635c2.692,-1.604 5.988,-5.461 6.867,-9.278c0.128,-0.558 2.424,-2.238 8.131,-4.766c14.729,-6.522 61.581,-27.216 71.956,-31.354c1.319,-0.526 3.243,-0.134 3.687,-0.58c0.445,-0.447 0.783,-1.559 0.783,-1.559l0.146,-0.931c0,0 0.53,-2.452 0.225,-3.018c-0.306,-0.567 -2.057,-0.811 -2.057,-0.811l-93.625,36.824c0,0 -1.793,0.725 -2.738,1.054c-4.304,1.498 -13.573,1.765 -5.756,-1.305c0.59,-0.232 6.503,-2.42 6.503,-2.42l90.101,-34.955c0,0 -1.992,-0.29 -2.445,-0.356Z" style="fill:#7b482c;"/><path d="M44.88,46.398c-0.412,0.557 -0.409,2.267 -0.409,2.267c0,0 0.993,-0.209 2.793,-0.562c12.542,-2.462 64.243,-11.907 91.518,-6.089c28.402,6.059 29.469,15.073 26.077,23.755c-0.315,0.807 -0.163,5.312 -0.163,5.312c0,0 1.26,-1.464 3.486,-6.285c4.79,-10.375 -0.546,-20.801 -28.803,-26.119c-26.387,-4.966 -80.276,4.407 -92.434,6.65c-1.597,0.294 -1.653,0.515 -2.065,1.071Z" style="fill:#7b482c;"/></g></g></svg>