<svg viewBox="0 0 16 16" xmlns="http://www.w3.org/2000/svg" fill-rule="evenodd" clip-rule="evenodd" stroke-linejoin="round" stroke-miterlimit="2">
    <path d="M11.286 4.108l4.059-1.027-1.6 1.478-.323-.043.745-.598-2.296 1.007-.249-.028 2.648-1.138.478-.371-.931.245-2.665 1.12-.259-.021 2.265-.94-1.505.364-.367-.048z" fill="#3d9354" />
    <path d="M9.996 5.159l.254-.096a.73.73 0 01.178-.026l.215.031-.375.145c.147.031.286.064.417.099l.441-.174s.154.022.181.071c.026.05-.02.265-.02.265l-.004.024c1.362.501 1.592 1.229 1.257 1.955-.195.422-.306.551-.306.551s-.013-.395.014-.466c.251-.642.224-1.305-1.284-1.815a.378.378 0 00-.082.02c-.91.363-5.018 2.178-6.31 2.75-.5.221-.701.369-.713.418-.077.334-.366.673-.602.813-.255.152-.494-.063-.245-.055.292.008 1.023-.894.038-.405-.109.054-.121.065-.228.189-.127.147-.333 1.013-.397 1.401-.085.517-.293 1.284-.499 1.421-.218.146-.314.108-.669.13-.124.008-.39-.013-.503-.065-.161-.074-.451-.186-.534-.246-.136-.098-.028-.296.063-.473.398-.772.85-1.828.916-2.444.014-.132-.139-.244-.128-.331.03-.23.189-.377.262-.408l.094-.041S7.012 6.284 9.44 5.368c-2.477-.312-6.479.42-7.504.621l-.244.049s-.001-.15.035-.199c.037-.048.041-.068.181-.094 1.064-.196 5.767-1.014 8.088-.586zm-.246.255L2.742 8.133l-.571.212c-.685.27.128.246.505.115.083-.029.24-.093.24-.093l7.275-2.861-.229-.051a5.707 5.707 0 00-.212-.041z" fill="#444" />
</svg>