<svg width="228" height="137" viewBox="0 0 228 137" xmlns="http://www.w3.org/2000/svg" fill-rule="evenodd" clip-rule="evenodd" stroke-linejoin="round" stroke-miterlimit="2">
    <path fill="#fff" d="M.183 0h226.772v136.063H.183z" />
    <path d="M155.137 26.159l44.86-11.391-18.019 16.215-3.128-.493 7.469-6.109-25.954 11.201-2.586-.344 30.157-12.944 5.254-4.026-11.503 3.067-29.751 12.742-2.709-.482 27.65-11.301-17.887 4.51-3.853-.645z" fill="#3d9354" />
    <path d="M139.351 38.638l2.898-1.09c.383-.144 1.981-.585 2.277-.542l2.445.356-4.509 1.896a105.3 105.3 0 014.756 1.124l5.028-1.978s1.752.244 2.057.811c.305.566-.225 3.018-.225 3.018l-.042.268c15.532 5.723 18.147 14.025 14.329 22.295-2.226 4.821-3.485 6.285-3.485 6.285s-.153-4.505.163-5.312c2.86-7.321 2.549-14.877-14.644-20.699a4.061 4.061 0 00-.936.233c-10.376 4.138-57.228 24.832-71.957 31.354-5.707 2.528-8.002 4.208-8.131 4.766-.878 3.817-4.174 7.674-6.867 9.278-2.913 1.734-5.636-.717-2.796-.635 3.332.096 11.663-10.186.437-4.619-1.242.616-1.382.742-2.599 2.155-1.447 1.68-3.804 11.556-4.53 15.985-.966 5.891-3.348 14.636-5.687 16.202-2.493 1.667-3.586 1.23-7.636 1.488-1.417.09-4.445-.156-5.736-.75-1.834-.844-5.145-2.123-6.088-2.801-1.55-1.114-.316-3.38.722-5.394 4.538-8.809 9.691-20.848 10.439-27.871.161-1.504-1.586-2.789-1.456-3.778.345-2.624 2.16-4.294 2.988-4.646.567-.241 1.067-.471 1.067-.471s63.7-24.099 91.387-34.542c-28.248-3.563-73.892 4.787-85.573 7.079-1.799.353-2.793.562-2.793.562s-.003-1.71.409-2.267c.412-.556.468-.777 2.065-1.071 12.125-2.237 65.756-11.565 92.223-6.689zm-2.796 2.912L56.63 72.557s-5.913 2.188-6.503 2.42c-7.817 3.07 1.452 2.803 5.756 1.305.945-.329 2.738-1.054 2.738-1.054l82.961-32.629c-.844-.198-1.717-.393-2.617-.585a64.107 64.107 0 00-2.41-.464z" fill="#444" />
</svg>